<mxfile host="app.diagrams.net" modified="2023-03-18T18:38:11.925Z" agent="5.0 (Macintosh; Intel Mac OS X 10_15_7) AppleWebKit/537.36 (KHTML, like Gecko) Chrome/109.0.0.0 Safari/537.36" etag="x_BlGNlP9cdvYR6V4Rk0" version="21.0.8" type="github">
  <diagram name="Page-1" id="c7558073-3199-34d8-9f00-42111426c3f3">
    <mxGraphModel dx="937" dy="635" grid="1" gridSize="10" guides="1" tooltips="1" connect="1" arrows="1" fold="1" page="1" pageScale="1" pageWidth="826" pageHeight="1169" background="none" math="0" shadow="0">
      <root>
        <mxCell id="0" />
        <mxCell id="1" parent="0" />
        <mxCell id="7" value="&lt;p style=&quot;margin: 0px; margin-top: 4px; text-align: center; text-decoration: underline;&quot;&gt;&lt;strong&gt;&lt;strong&gt;Process&lt;/strong&gt; 3&lt;br /&gt;&lt;/strong&gt;&lt;/p&gt;&lt;hr /&gt;&lt;p style=&quot;margin: 0px; margin-left: 8px;&quot;&gt;List Possible&lt;/p&gt;&lt;p style=&quot;margin: 0px; margin-left: 8px;&quot;&gt;System Solutions&lt;/p&gt;" style="verticalAlign=middle;align=center;overflow=fill;fontSize=12;fontFamily=Helvetica;html=1;rounded=1;fontStyle=1;strokeWidth=3;fillColor=#E6FFCC" parent="1" vertex="1">
          <mxGeometry x="681" y="371" width="110" height="90" as="geometry" />
        </mxCell>
        <mxCell id="VCfCneUQsbQWeTSMTpL6-111" value="" style="edgeStyle=orthogonalEdgeStyle;rounded=0;orthogonalLoop=1;jettySize=auto;html=1;" edge="1" parent="1" source="VCfCneUQsbQWeTSMTpL6-96" target="VCfCneUQsbQWeTSMTpL6-97">
          <mxGeometry relative="1" as="geometry" />
        </mxCell>
        <mxCell id="VCfCneUQsbQWeTSMTpL6-96" value="Collect Data" style="whiteSpace=wrap;align=center;verticalAlign=middle;fontStyle=1;strokeWidth=3;fillColor=#FFFFCC" vertex="1" parent="1">
          <mxGeometry x="10.000000000000057" y="830" width="90" height="60" as="geometry" />
        </mxCell>
        <mxCell id="VCfCneUQsbQWeTSMTpL6-97" value="Preprocess DataÂ " style="whiteSpace=wrap;align=center;verticalAlign=middle;fontStyle=1;strokeWidth=3;fillColor=#FFFFCC" vertex="1" parent="1">
          <mxGeometry x="156.00000000000006" y="830" width="90" height="60" as="geometry" />
        </mxCell>
        <mxCell id="VCfCneUQsbQWeTSMTpL6-120" value="" style="edgeStyle=orthogonalEdgeStyle;rounded=0;orthogonalLoop=1;jettySize=auto;html=1;" edge="1" parent="1" source="VCfCneUQsbQWeTSMTpL6-100" target="VCfCneUQsbQWeTSMTpL6-117">
          <mxGeometry relative="1" as="geometry" />
        </mxCell>
        <mxCell id="VCfCneUQsbQWeTSMTpL6-100" value="Deploy" style="whiteSpace=wrap;align=center;verticalAlign=middle;fontStyle=1;strokeWidth=3;fillColor=#FFFFCC" vertex="1" parent="1">
          <mxGeometry x="531" y="830" width="90" height="60" as="geometry" />
        </mxCell>
        <mxCell id="VCfCneUQsbQWeTSMTpL6-122" value="" style="edgeStyle=orthogonalEdgeStyle;rounded=0;orthogonalLoop=1;jettySize=auto;html=1;entryX=0.75;entryY=0;entryDx=0;entryDy=0;" edge="1" parent="1" source="VCfCneUQsbQWeTSMTpL6-102" target="VCfCneUQsbQWeTSMTpL6-99">
          <mxGeometry relative="1" as="geometry" />
        </mxCell>
        <mxCell id="VCfCneUQsbQWeTSMTpL6-123" value="" style="edgeStyle=orthogonalEdgeStyle;rounded=0;orthogonalLoop=1;jettySize=auto;html=1;" edge="1" parent="1" source="VCfCneUQsbQWeTSMTpL6-102" target="VCfCneUQsbQWeTSMTpL6-103">
          <mxGeometry relative="1" as="geometry" />
        </mxCell>
        <mxCell id="VCfCneUQsbQWeTSMTpL6-102" value="Online Feature Store" style="shape=cylinder3;whiteSpace=wrap;html=1;boundedLbl=1;backgroundOutline=1;size=15;" vertex="1" parent="1">
          <mxGeometry x="346" y="630" width="74" height="80" as="geometry" />
        </mxCell>
        <mxCell id="VCfCneUQsbQWeTSMTpL6-103" value="Offline Feature Store" style="shape=cylinder3;whiteSpace=wrap;html=1;boundedLbl=1;backgroundOutline=1;size=15;" vertex="1" parent="1">
          <mxGeometry x="480" y="690" width="70" height="80" as="geometry" />
        </mxCell>
        <mxCell id="VCfCneUQsbQWeTSMTpL6-105" value="" style="edgeStyle=elbowEdgeStyle;elbow=horizontal;strokeColor=#990000;strokeWidth=2;entryX=0;entryY=0.5;entryDx=0;entryDy=0;entryPerimeter=0;exitX=0.25;exitY=0;exitDx=0;exitDy=0;" edge="1" parent="1" source="VCfCneUQsbQWeTSMTpL6-97" target="VCfCneUQsbQWeTSMTpL6-103">
          <mxGeometry width="100" height="100" relative="1" as="geometry">
            <mxPoint x="190" y="790" as="sourcePoint" />
            <mxPoint x="305" y="750" as="targetPoint" />
            <Array as="points">
              <mxPoint x="195" y="700" />
            </Array>
          </mxGeometry>
        </mxCell>
        <mxCell id="VCfCneUQsbQWeTSMTpL6-106" value="" style="edgeStyle=elbowEdgeStyle;elbow=horizontal;strokeColor=#990000;strokeWidth=2;" edge="1" parent="1" source="VCfCneUQsbQWeTSMTpL6-98">
          <mxGeometry width="100" height="100" relative="1" as="geometry">
            <mxPoint x="200" y="800" as="sourcePoint" />
            <mxPoint x="340" y="670" as="targetPoint" />
            <Array as="points" />
          </mxGeometry>
        </mxCell>
        <mxCell id="VCfCneUQsbQWeTSMTpL6-107" value="Model Registry" style="shape=cylinder3;whiteSpace=wrap;html=1;boundedLbl=1;backgroundOutline=1;size=15;" vertex="1" parent="1">
          <mxGeometry x="440" y="950" width="60" height="80" as="geometry" />
        </mxCell>
        <mxCell id="VCfCneUQsbQWeTSMTpL6-108" value="" style="edgeStyle=elbowEdgeStyle;elbow=horizontal;strokeColor=#990000;strokeWidth=2;entryX=0;entryY=0;entryDx=0;entryDy=52.5;entryPerimeter=0;exitX=0.25;exitY=1;exitDx=0;exitDy=0;" edge="1" parent="1" source="VCfCneUQsbQWeTSMTpL6-99" target="VCfCneUQsbQWeTSMTpL6-107">
          <mxGeometry width="100" height="100" relative="1" as="geometry">
            <mxPoint x="190" y="860" as="sourcePoint" />
            <mxPoint x="330" y="980" as="targetPoint" />
            <Array as="points">
              <mxPoint x="390" y="890" />
            </Array>
          </mxGeometry>
        </mxCell>
        <mxCell id="VCfCneUQsbQWeTSMTpL6-98" value="Engineer Features" style="whiteSpace=wrap;align=center;verticalAlign=middle;fontStyle=1;strokeWidth=3;fillColor=#FFFFCC" vertex="1" parent="1">
          <mxGeometry x="150.00000000000006" y="710" width="90" height="60" as="geometry" />
        </mxCell>
        <mxCell id="VCfCneUQsbQWeTSMTpL6-112" value="" style="edgeStyle=elbowEdgeStyle;elbow=horizontal;strokeColor=#990000;strokeWidth=2;entryX=0;entryY=0;entryDx=0;entryDy=52.5;entryPerimeter=0;" edge="1" parent="1" target="VCfCneUQsbQWeTSMTpL6-99">
          <mxGeometry width="100" height="100" relative="1" as="geometry">
            <mxPoint x="250" y="860" as="sourcePoint" />
            <mxPoint x="346" y="973" as="targetPoint" />
            <Array as="points" />
          </mxGeometry>
        </mxCell>
        <mxCell id="VCfCneUQsbQWeTSMTpL6-99" value="Train, Tune, Evaluate" style="whiteSpace=wrap;align=center;verticalAlign=middle;fontStyle=1;strokeWidth=3;fillColor=#FFFFCC" vertex="1" parent="1">
          <mxGeometry x="300.00000000000006" y="830" width="90" height="60" as="geometry" />
        </mxCell>
        <mxCell id="VCfCneUQsbQWeTSMTpL6-113" value="" style="edgeStyle=elbowEdgeStyle;elbow=horizontal;strokeColor=#990000;strokeWidth=2;exitX=0.25;exitY=1;exitDx=0;exitDy=0;entryX=0.378;entryY=1.008;entryDx=0;entryDy=0;entryPerimeter=0;" edge="1" parent="1" target="VCfCneUQsbQWeTSMTpL6-100">
          <mxGeometry width="100" height="100" relative="1" as="geometry">
            <mxPoint x="500" y="1000" as="sourcePoint" />
            <mxPoint x="570" y="880" as="targetPoint" />
            <Array as="points">
              <mxPoint x="550" y="940" />
            </Array>
          </mxGeometry>
        </mxCell>
        <mxCell id="VCfCneUQsbQWeTSMTpL6-116" value="" style="edgeStyle=orthogonalEdgeStyle;rounded=0;orthogonalLoop=1;jettySize=auto;html=1;entryX=0;entryY=0.5;entryDx=0;entryDy=0;" edge="1" parent="1" target="VCfCneUQsbQWeTSMTpL6-100">
          <mxGeometry relative="1" as="geometry">
            <mxPoint x="390" y="860" as="sourcePoint" />
            <mxPoint x="166" y="870" as="targetPoint" />
            <Array as="points">
              <mxPoint x="430" y="860" />
              <mxPoint x="430" y="860" />
            </Array>
          </mxGeometry>
        </mxCell>
        <mxCell id="VCfCneUQsbQWeTSMTpL6-121" value="" style="edgeStyle=orthogonalEdgeStyle;rounded=0;orthogonalLoop=1;jettySize=auto;html=1;" edge="1" parent="1" source="VCfCneUQsbQWeTSMTpL6-117" target="VCfCneUQsbQWeTSMTpL6-118">
          <mxGeometry relative="1" as="geometry" />
        </mxCell>
        <mxCell id="VCfCneUQsbQWeTSMTpL6-117" value="Application" style="whiteSpace=wrap;align=center;verticalAlign=middle;fontStyle=1;strokeWidth=3;fillColor=#FFFFCC" vertex="1" parent="1">
          <mxGeometry x="701" y="830" width="90" height="60" as="geometry" />
        </mxCell>
        <mxCell id="VCfCneUQsbQWeTSMTpL6-119" style="edgeStyle=orthogonalEdgeStyle;rounded=0;orthogonalLoop=1;jettySize=auto;html=1;entryX=0.411;entryY=1.025;entryDx=0;entryDy=0;entryPerimeter=0;" edge="1" parent="1" source="VCfCneUQsbQWeTSMTpL6-118" target="VCfCneUQsbQWeTSMTpL6-99">
          <mxGeometry relative="1" as="geometry">
            <mxPoint x="630" y="950" as="targetPoint" />
          </mxGeometry>
        </mxCell>
        <mxCell id="VCfCneUQsbQWeTSMTpL6-118" value="Monitor" style="whiteSpace=wrap;align=center;verticalAlign=middle;fontStyle=1;strokeWidth=3;fillColor=#FFFFCC" vertex="1" parent="1">
          <mxGeometry x="701" y="920" width="90" height="60" as="geometry" />
        </mxCell>
        <mxCell id="VCfCneUQsbQWeTSMTpL6-127" style="edgeStyle=orthogonalEdgeStyle;rounded=0;orthogonalLoop=1;jettySize=auto;html=1;entryX=0.411;entryY=1.025;entryDx=0;entryDy=0;entryPerimeter=0;" edge="1" parent="1">
          <mxGeometry relative="1" as="geometry">
            <mxPoint x="190" y="892" as="targetPoint" />
            <mxPoint x="523" y="950" as="sourcePoint" />
          </mxGeometry>
        </mxCell>
        <mxCell id="VCfCneUQsbQWeTSMTpL6-128" value="" style="endArrow=classic;startArrow=classic;html=1;rounded=0;" edge="1" parent="1">
          <mxGeometry width="50" height="50" relative="1" as="geometry">
            <mxPoint x="330" y="900" as="sourcePoint" />
            <mxPoint x="380" y="850" as="targetPoint" />
            <Array as="points">
              <mxPoint x="510" y="900" />
            </Array>
          </mxGeometry>
        </mxCell>
      </root>
    </mxGraphModel>
  </diagram>
</mxfile>
